<svg xmlns="http://www.w3.org/2000/svg" width="52.875" height="54" viewBox="0 0 52.875 54">
  <g id="noun_twenty_four_hours_1239181" data-name="noun_twenty four hours_1239181" transform="translate(-6.312 -5.383)">
    <g id="Group_1380" data-name="Group 1380" transform="translate(6.312 5.383)">
      <path id="Path_256" data-name="Path 256" d="M44.118,54.175V29.2a.519.519,0,0,0-.519-.52,13.007,13.007,0,1,0,0,26.014A.52.52,0,0,0,44.118,54.175Z" transform="translate(-15.899 -14.582)" fill="#fff"/>
      <path id="Path_257" data-name="Path 257" d="M67.238,41.292a13.177,13.177,0,0,0-10.855-12.4.52.52,0,0,0-.376.945c3.357,2.235,5.561,6.619,5.753,11.438.213,5.322-2.041,10.23-5.741,12.5a.521.521,0,0,0,.272.965.439.439,0,0,0,.089-.008A13.145,13.145,0,0,0,67.238,41.292Z" transform="translate(-25.841 -14.663)" fill="#fff"/>
      <path id="Path_258" data-name="Path 258" d="M51.193,16.5a1.385,1.385,0,0,0,1.383-1.385V6.768a1.384,1.384,0,1,0-2.769,0V15.11A1.387,1.387,0,0,0,51.193,16.5Z" transform="translate(-23.486 -5.383)" fill="#fff"/>
      <path id="Path_259" data-name="Path 259" d="M26.142,26.113A1.385,1.385,0,0,0,28.1,24.154l-5.779-5.777a1.419,1.419,0,0,0-1.959,0,1.386,1.386,0,0,0,0,1.958Z" transform="translate(-11.701 -10.359)" fill="#fff"/>
      <path id="Path_260" data-name="Path 260" d="M51.2,76.254a1.386,1.386,0,0,0-1.384,1.385v8.342a1.384,1.384,0,1,0,2.769,0V77.639A1.387,1.387,0,0,0,51.2,76.254Z" transform="translate(-23.489 -33.367)" fill="#fff"/>
      <path id="Path_261" data-name="Path 261" d="M27.125,67.912a1.371,1.371,0,0,0-.979.408L20.364,74.1a1.386,1.386,0,0,0,0,1.958,1.418,1.418,0,0,0,1.959,0L28.1,70.278a1.386,1.386,0,0,0-.979-2.366Z" transform="translate(-11.701 -30.073)" fill="#fff"/>
      <path id="Path_262" data-name="Path 262" d="M18.069,49.2a1.386,1.386,0,0,0-1.385-1.385H7.7a1.385,1.385,0,0,0,0,2.771h8.988A1.386,1.386,0,0,0,18.069,49.2Z" transform="translate(-6.312 -22.136)" fill="#fff"/>
      <path id="Path_263" data-name="Path 263" d="M76.328,21.571c-1.7-.46-2.018-.85-2.4-2.98a.365.365,0,0,0-.359-.3h0a.364.364,0,0,0-.359.3c-.388,2.131-.7,2.521-2.406,2.98a.365.365,0,0,0,0,.7c1.707.462,2.022.853,2.405,2.981a.366.366,0,0,0,.36.3h0a.365.365,0,0,0,.359-.3c.382-2.126.7-2.517,2.4-2.98a.365.365,0,0,0,0-.7Z" transform="translate(-31.669 -10.48)" fill="#fff"/>
      <path id="Path_264" data-name="Path 264" d="M76.328,74.062c-1.7-.461-2.018-.851-2.4-2.981a.365.365,0,0,0-.359-.3h0a.364.364,0,0,0-.359.3c-.388,2.13-.7,2.52-2.406,2.981a.365.365,0,0,0,0,.7c1.706.461,2.021.851,2.4,2.981a.366.366,0,0,0,.36.3h0a.365.365,0,0,0,.359-.3c.382-2.126.7-2.516,2.4-2.98a.366.366,0,0,0,.269-.353A.362.362,0,0,0,76.328,74.062Z" transform="translate(-31.669 -31.206)" fill="#fff"/>
      <path id="Path_265" data-name="Path 265" d="M88.311,46.295c-2.295-.684-2.741-1.266-3.187-4.151a.366.366,0,0,0-.351-.31.362.362,0,0,0-.367.29c-.594,2.861-1.071,3.418-3.4,3.984a.365.365,0,0,0-.018.7c2.3.684,2.746,1.266,3.19,4.153a.366.366,0,0,0,.352.31h.009a.366.366,0,0,0,.358-.292c.588-2.854,1.064-3.414,3.394-3.984a.365.365,0,0,0,.018-.7Z" transform="translate(-35.696 -19.776)" fill="#fff"/>
    </g>
  </g>
</svg>
