<svg xmlns="http://www.w3.org/2000/svg" width="52.105" height="52.105" viewBox="0 0 52.105 52.105">
  <g id="noun_presentation_147096" transform="translate(-4.5 -9.273)">
    <g id="Group_1377" data-name="Group 1377" transform="translate(5 9.774)">
      <path id="Path_251" data-name="Path 251" d="M11.406,49.813a.137.137,0,0,0,.128.143H55.109a.136.136,0,0,0,.127-.143V19.55H11.406Zm21.063-4.055H28.383V31.746h4.086Zm5.789,0H34.172V35.542h4.086Zm5.79,0H39.961V29.136h4.087ZM24.638,29.8a1.57,1.57,0,0,1,.933.314l3.277-2.993a2.077,2.077,0,0,1-.124-.7,1.713,1.713,0,1,1,3.405,0,2.1,2.1,0,0,1-.047.426l3,1.972a1.6,1.6,0,0,1,1.135-.494,1.548,1.548,0,0,1,.789.226L40.5,24.671a2.068,2.068,0,0,1-.2-.866,1.714,1.714,0,1,1,1.7,1.9,1.544,1.544,0,0,1-.789-.226l-3.493,3.874a2.053,2.053,0,0,1,.2.866,1.713,1.713,0,1,1-3.4,0,2.1,2.1,0,0,1,.046-.426l-3-1.972a1.6,1.6,0,0,1-1.135.494A1.577,1.577,0,0,1,29.492,28L26.217,31a2.111,2.111,0,0,1,.123.7,1.713,1.713,0,1,1-1.7-1.905Zm-2.044,7.237H26.68v8.725H22.595Z" transform="translate(-7.768 -13.34)" fill="none" stroke="#fff" stroke-width="1"/>
      <rect id="Rectangle_707" data-name="Rectangle 707" width="4.086" height="14.012" transform="translate(20.615 18.406)" fill="#fff" stroke="#fff" stroke-width="1"/>
      <rect id="Rectangle_708" data-name="Rectangle 708" width="4.086" height="10.216" transform="translate(26.404 22.202)" fill="#fff" stroke="#fff" stroke-width="1"/>
      <rect id="Rectangle_709" data-name="Rectangle 709" width="4.087" height="16.622" transform="translate(32.192 15.796)" fill="#fff" stroke="#fff" stroke-width="1"/>
      <rect id="Rectangle_710" data-name="Rectangle 710" width="4.086" height="8.725" transform="translate(14.826 23.693)" fill="#fff" stroke="#fff" stroke-width="1"/>
      <path id="Path_252" data-name="Path 252" d="M33.413,34.953a1.811,1.811,0,0,0,1.7-1.9,2.105,2.105,0,0,0-.123-.7l3.275-2.992a1.572,1.572,0,0,0,.935.314,1.6,1.6,0,0,0,1.135-.494l3,1.972a2.1,2.1,0,0,0-.046.426,1.713,1.713,0,1,0,3.4,0,2.053,2.053,0,0,0-.2-.866l3.493-3.874a1.538,1.538,0,0,0,.789.226,1.916,1.916,0,1,0-1.7-1.9,2.068,2.068,0,0,0,.2.866l-3.493,3.873a1.542,1.542,0,0,0-.789-.226,1.6,1.6,0,0,0-1.135.494l-3-1.972a2.1,2.1,0,0,0,.047-.426,1.713,1.713,0,1,0-3.405,0,2.071,2.071,0,0,0,.124.7l-3.277,2.993a1.565,1.565,0,0,0-.933-.314,1.916,1.916,0,0,0,0,3.809Z" transform="translate(-16.543 -14.689)" fill="#fff" stroke="#fff" stroke-width="1"/>
      <path id="Path_253" data-name="Path 253" d="M54.506,12.4H32.153v-.842a1.61,1.61,0,1,0-3.2,0V12.4H6.6A1.7,1.7,0,0,0,5,14.194a1.711,1.711,0,0,0,1.5,1.779V46.247a2.409,2.409,0,0,0,2.261,2.528H27.979l-9,10.068a1.3,1.3,0,0,0,0,1.687.989.989,0,0,0,1.508,0l9-10.068V56.6a1.073,1.073,0,1,0,2.133,0V50.46l9,10.07a.988.988,0,0,0,1.508,0,1.3,1.3,0,0,0,0-1.687l-9-10.068H52.341A2.408,2.408,0,0,0,54.6,46.247V15.973a1.711,1.711,0,0,0,1.5-1.779A1.7,1.7,0,0,0,54.506,12.4ZM52.468,46.247a.136.136,0,0,1-.127.143H8.766a.137.137,0,0,1-.128-.143V15.984h43.83Z" transform="translate(-5 -9.774)" fill="#fff" stroke="#fff" stroke-width="1"/>
    </g>
  </g>
</svg>
