<svg xmlns="http://www.w3.org/2000/svg" width="49.7" height="49.699" viewBox="0 0 49.7 49.699">
  <path id="Path_4488" data-name="Path 4488" d="M43.47,16.63A24.85,24.85,0,1,0,68.32,41.478,24.85,24.85,0,0,0,43.47,16.63ZM60.608,25.5q-.506-.541-1.04-1.047Q60.1,24.96,60.608,25.5ZM62.5,27.8a23.621,23.621,0,0,0-1.889-2.3A23.618,23.618,0,0,1,62.5,27.8Zm-2.971-3.392a23.6,23.6,0,0,0-3.561-2.76,23.585,23.585,0,0,1,3.554,2.76Zm-3.568-2.767A23.447,23.447,0,0,0,53.3,20.191a23.4,23.4,0,0,1,2.648,1.454ZM45.2,18.133c-.569-.042-1.145-.07-1.721-.07a15.508,15.508,0,0,1,1.714.035Zm2,.232c-.562-.091-1.138-.155-1.714-.2a12.653,12.653,0,0,1,1.707.169ZM20.067,42.773c.211.358.45.7.7,1.145s.52.8.611.983c0,2.283.19,4.875,1.707,6.9.176.232.365.457.555.7a4.727,4.727,0,0,1,.913,1.32,4.727,4.727,0,0,1,.176,1.651c0,.035,0,.077,0,.112q.365.478.752.941a23.333,23.333,0,0,1-5.45-15.052C20.032,41.909,20.046,42.337,20.067,42.773Zm5.619,13.921c.2.239.414.478.625.7-.239-.232-.45-.471-.653-.709Zm.843.934q.295.309.6.6A6.079,6.079,0,0,1,26.529,57.628ZM43.47,64.919a23.3,23.3,0,0,1-12.207-3.435q.52.316,1.047.611a8.988,8.988,0,0,1,.253-1.356,6.942,6.942,0,0,1,.239-.7,4.917,4.917,0,0,0,.407-1.524,5.184,5.184,0,0,0-.07-.99,2.023,2.023,0,0,1,0-.99,2.065,2.065,0,0,1,.906-.745,3.413,3.413,0,0,0,1.4-1.264,3.315,3.315,0,0,0,.295-1.925,1.91,1.91,0,0,1,.351-1.672,3.02,3.02,0,0,0,.555-1.4,2.662,2.662,0,0,0-1.18-2.262,7.4,7.4,0,0,0-2.346-1.32c-.3-.105-.618-.19-.934-.274a6.6,6.6,0,0,1-1.461-.513,6.687,6.687,0,0,1-1.854-1.84,7.382,7.382,0,0,0-2.437-2.276,4.565,4.565,0,0,0-2.564-.239,3.02,3.02,0,0,1-1.84-.14,1.854,1.854,0,0,1-1.04-1.222c-.155-1.138,1.356-2.711,2.458-3.856a11.469,11.469,0,0,0,1.4-1.644l.239-.386a5.022,5.022,0,0,1,1.468-1.756,5.022,5.022,0,0,1,.92-.457,3.144,3.144,0,0,0,2.2-2.051,6.158,6.158,0,0,1,.183-.6A2.037,2.037,0,0,0,32.4,28.9l.133-.105c.857-.9.45-2.044.119-2.971-.274-.773-.435-1.3-.211-1.594a1.777,1.777,0,0,1,.632-.393l.351-.169a1.812,1.812,0,0,0,1.1-1.861l-.077-.4-.281-.091a5.408,5.408,0,0,1,1.257.049l-.569,1.756a1.152,1.152,0,0,0,.049.955,1.089,1.089,0,0,0,.892.513,4.091,4.091,0,0,0,3.231-1.4,4.326,4.326,0,0,1,1.637-1.04,4.214,4.214,0,0,1,.955-.084h.569a5.928,5.928,0,0,0,5.008-3.716A23.241,23.241,0,0,1,53.3,20.191h0a1.229,1.229,0,0,1-.4.07h-.295a4.5,4.5,0,0,0-1.342.45A4.025,4.025,0,0,0,50,21.568a2.269,2.269,0,0,0-.5,2,1.9,1.9,0,0,1,0,.773c-.14.45-.906.66-1.573.843l-.246.133a5.373,5.373,0,0,0-2.479,1.4,3.357,3.357,0,0,0-.927,2.915,5.274,5.274,0,0,0,.435,1.166,2.037,2.037,0,0,1,.323,1.166c-.084.372-.485.618-1.131.976a4.875,4.875,0,0,0-1.468,1.075,4.4,4.4,0,0,0-.759,1.665,4.481,4.481,0,0,1-.365.99,4.4,4.4,0,0,1-.653.73,4.558,4.558,0,0,0-.955,1.313,3.322,3.322,0,0,0,.442,3.14A8.091,8.091,0,0,0,42.213,43.8a12.7,12.7,0,0,0,2.95,1.742,5.008,5.008,0,0,0,3.687.07c.218-.091.428-.2.632-.309a2.234,2.234,0,0,1,1.011-.365,1.826,1.826,0,0,1,1.166.822,6.609,6.609,0,0,1,1.4,4.067,14.191,14.191,0,0,1-.155,1.482,9.981,9.981,0,0,0-.063,2.5,9.6,9.6,0,0,0,2.655,4.8,2.7,2.7,0,0,0,1.967,1.124,1.574,1.574,0,0,0,.667-.147,2.381,2.381,0,0,0,1.124-1.531l.049-.133a11.238,11.238,0,0,1,1.8-2.859c1.025-1.327,2.107-2.69,2.262-4.46a9.6,9.6,0,0,0,0-1.651,4.039,4.039,0,0,1,.225-2.241,4.453,4.453,0,0,1,.948-1.068A3.737,3.737,0,0,0,66.1,43.4a3.835,3.835,0,0,0-.225-1.651,2.81,2.81,0,0,1-.183-1.04c.063-.527.527-.948,1.082-1.4a23.323,23.323,0,0,0-.485-3.034,23.424,23.424,0,0,1-22.82,28.65ZM27.414,58.527l.6.541Zm.913.822.611.5Zm.948.766.639.471Zm.976.7c.239.162.485.323.7.478-.218-.155-.464-.309-.7-.471Zm32.31-32.928q.421.59.8,1.2-.379-.611-.8-1.194Zm.815,1.215a23.42,23.42,0,0,1,1.4,2.62,23.413,23.413,0,0,0-1.4-2.62Zm1.468,2.753c.2.443.386.885.555,1.335-.155-.45-.358-.892-.555-1.327Zm.562,1.349a23.233,23.233,0,0,1,.878,2.88,23.235,23.235,0,0,0-.878-2.88Z" transform="translate(-18.62 -16.631)" fill="#fa662e"/>
</svg>
