<svg xmlns="http://www.w3.org/2000/svg" width="37.161" height="54.4" viewBox="0 0 37.161 54.4">
  <g id="noun_touch_927389" transform="translate(-17.809 -2.801)">
    <g id="Group_1379" data-name="Group 1379" transform="translate(17.999 3)">
      <path id="Path_255" data-name="Path 255" d="M32.361,955.362a10.941,10.941,0,0,0-10.915,10.915,11.764,11.764,0,0,0,2.047,6.75,1.724,1.724,0,1,0,2.8-2.01,9.067,9.067,0,0,1-1.4-4.739,7.468,7.468,0,1,1,14.936,0,9.067,9.067,0,0,1-1.4,4.739,1.724,1.724,0,1,0,2.8,2.011,11.764,11.764,0,0,0,2.047-6.75A10.941,10.941,0,0,0,32.361,955.362Zm0,9.192a5.2,5.2,0,0,0-5.17,5.17V983.69a5.772,5.772,0,0,0-2.872-2.316,4.847,4.847,0,0,0-3.734.646c-1.089.865-2.041,1.538-2.424,2.926a6.9,6.9,0,0,0,.539,4.344c3.028,7.256,6.7,14.29,11.22,19.478a1.748,1.748,0,0,0,1.293.592H46.723a1.728,1.728,0,0,0,1.023-.341,14.829,14.829,0,0,0,4.273-6.032,33.635,33.635,0,0,0,2.424-8.348,19.615,19.615,0,0,0-.18-8.043,6.223,6.223,0,0,0-5.045-4.811,8.9,8.9,0,0,0-1.311.108,4.29,4.29,0,0,0-1.293-1.526,4.588,4.588,0,0,0-2.8-.88,3.658,3.658,0,0,0-1.688.5,4.373,4.373,0,0,0-.628-.754,4.69,4.69,0,0,0-2.818-.9,5.261,5.261,0,0,0-1.149.144v-8.761a5.2,5.2,0,0,0-5.17-5.17Zm0,3.447a1.683,1.683,0,0,1,1.723,1.723v12.064a1.724,1.724,0,0,0,3.285.736,1.6,1.6,0,0,1,2.1-.5c.206.149.359.235.359.916a1.722,1.722,0,0,0,3.267.772c.448-.93.74-.817,1.526-.521.236.167.377.25.377.9a1.729,1.729,0,0,0,2.89,1.257c.019.038.767-.2,1.041-.108,1.068.162,1.59.771,2.029,2.316a16.71,16.71,0,0,1,.09,6.57,30.523,30.523,0,0,1-2.19,7.468,13.255,13.255,0,0,1-2.872,4.326H32.074c-3.213-4.351-10.626-16.056-10.592-20.035A2.134,2.134,0,0,1,23.4,984.7c.914.461,1.141.935,1.688,1.921l2.28,4.56a1.722,1.722,0,0,0,3.267-.772V969.723A1.683,1.683,0,0,1,32.361,968Z" transform="translate(-17.999 -955.362)" fill="#fff" stroke="#fff" stroke-width="0.4"/>
    </g>
  </g>
</svg>
