<svg xmlns="http://www.w3.org/2000/svg" width="34.666" height="51.469" viewBox="0 0 34.666 51.469">
  <path id="Path_4489" data-name="Path 4489" d="M116.516,22.252a32.259,32.259,0,0,1,9.272,22.482s.921,11.9-9.264,22.487a1.7,1.7,0,0,0-.542,1.17,1.613,1.613,0,0,0,1.646,1.577A3.055,3.055,0,0,0,119,69.309a34.581,34.581,0,0,0,10.123-24.575,36.089,36.089,0,0,0-10.041-24.557,1.874,1.874,0,0,0-1.456-.677,1.613,1.613,0,0,0-1.646,1.577,1.545,1.545,0,0,0,.541,1.17Zm-7.048,6.366a22.963,22.963,0,0,1,6.673,16.027,22.705,22.705,0,0,1-6.7,16.226,1.549,1.549,0,0,0-.592,1.212A1.613,1.613,0,0,0,110.5,63.66a1.676,1.676,0,0,0,1.205-.5,26.031,26.031,0,0,0,7.778-18.38A25.618,25.618,0,0,0,111.7,26.311a1.676,1.676,0,0,0-1.2-.5,1.613,1.613,0,0,0-1.646,1.577A1.551,1.551,0,0,0,109.469,28.618Zm-2.653,16.138a14.114,14.114,0,0,1-4.607,10.4l.022.018a1.527,1.527,0,0,0-.329.946,1.613,1.613,0,0,0,1.646,1.577,1.68,1.68,0,0,0,1.148-.447l.017.015a17.168,17.168,0,0,0,0-25.075l-.021.018a1.677,1.677,0,0,0-1.147-.446,1.613,1.613,0,0,0-1.646,1.577,1.528,1.528,0,0,0,.328.945l-.016.013A14.248,14.248,0,0,1,106.815,44.756Zm-8.412,0c0,4.282-2.9,4.371-2.9,5.936a1.612,1.612,0,0,0,1.646,1.577,3.934,3.934,0,0,0,1.2-.363,9.411,9.411,0,0,0,3.394-7.151,9.541,9.541,0,0,0-3.387-7.2,1.688,1.688,0,0,0-2.468.227c-.788,1.049.088,2.041.575,2.536A6.374,6.374,0,0,1,98.4,44.756Z" transform="translate(-95 -19)" fill="#fff" stroke="#fff" stroke-width="1"/>
</svg>
