<svg xmlns="http://www.w3.org/2000/svg" width="63.18" height="47.598" viewBox="0 0 63.18 47.598">
  <g id="noun_shake_hand_603257" data-name="noun_shake hand_603257" transform="translate(-0.496 28.5)">
    <g id="Group_1378" data-name="Group 1378" transform="translate(0.999 -28)">
      <path id="Path_254" data-name="Path 254" d="M11.778,8a1.031,1.031,0,0,0-.845.651L1.138,30.059a1.6,1.6,0,0,0-.1.991,1.31,1.31,0,0,0,.484.794L7.879,36.48A.926.926,0,0,0,9.291,36l2.349-5.14,1.751,1.276,1.917,1.393a13.251,13.251,0,0,0,2.681,8.149,4.928,4.928,0,0,0,.04,3.859,2.807,2.807,0,0,0,2.976,1.688,4.726,4.726,0,0,0,.227,2.222,2.827,2.827,0,0,0,4.092,1.51,4.587,4.587,0,0,0,.166,1.627c.87,1.9,2.834,2.569,4.343,1.469l2.232-1.627,2.212,1.611c1.509,1.1,3.474.434,4.343-1.469a4.577,4.577,0,0,0,.166-1.627,2.828,2.828,0,0,0,4.092-1.51,4.726,4.726,0,0,0,.226-2.222,2.806,2.806,0,0,0,2.976-1.688,4.6,4.6,0,0,0-.331-4.1,3.214,3.214,0,0,0,1.411-1.357h0c.044-.1.068-.2.105-.3a1.22,1.22,0,0,0,.331-.432A14.009,14.009,0,0,0,48.843,33.5l.817-.595,1.059-.773,1.059-.768.7-.508,2.345,5.134a1.105,1.105,0,0,0,.631.61.854.854,0,0,0,.789-.133L62.6,31.844a1.5,1.5,0,0,0,.38-1.774L53.187,8.657a1.007,1.007,0,0,0-.95-.651.883.883,0,0,0-.469.168L45.41,12.81a1.5,1.5,0,0,0-.376,1.774l.287.63-.7.508-1.06.768-1.059.773-.845.615A7.68,7.68,0,0,0,35.972,16.4a7.528,7.528,0,0,0-1.767.5,8.383,8.383,0,0,0-1.7.966h0l-.433.315-.485-.33a8.258,8.258,0,0,0-3.478-1.393A7.755,7.755,0,0,0,22.466,17.9l-1.917-1.393L18.79,15.225l.291-.635a1.5,1.5,0,0,0-.38-1.779L12.344,8.174A.869.869,0,0,0,11.778,8Zm.429,3.086,4.57,3.33L8.017,33.567l-4.57-3.33Zm39.7,0,8.759,19.155L56.1,33.567,47.339,14.416Zm-5.556,6.38L51.44,28.6l-.7.508-1.059.773h0l-1.059.778-.048.036a13.67,13.67,0,0,0-.9-2.847,1.465,1.465,0,0,0-.073-.188v0l-2.511-5.491v0a11.667,11.667,0,0,0-1.622-2.593l.073-.051,1.059-.773,1.059-.773Zm-28.594.015,1.751,1.271,1.128.824a11.534,11.534,0,0,0-1.614,2.583l-2.511,5.5a13.516,13.516,0,0,0-.934,3.071l-1.148-.839-1.759-1.281Zm19.855,1.449a6.714,6.714,0,0,1,4.832,3.035,9.593,9.593,0,0,1,.849,1.49v.005l2.511,5.49v.005l.008.015a11.07,11.07,0,0,1,.817,6.258A3.338,3.338,0,0,0,46,34.6l-8.472-6.177a5.29,5.29,0,0,0-.36-2.3,1.5,1.5,0,0,0-.069-.2l-.012-.03-.012-.03V25.85a4.4,4.4,0,0,0-.416-.727,3.792,3.792,0,0,0-.514-.579h0a3.023,3.023,0,0,0-3.939-.229l-.04.03-.057.046L27.48,27.756a1.086,1.086,0,0,0-.15.137l-.113.081c-1.041.759-2.275.25-3.255-.859L26.72,25.1l2.867-2.09.028-.02.008,0,3-2.186h0l.918-.676h0A5.935,5.935,0,0,1,37.614,18.931Zm-11.129.046a6.129,6.129,0,0,1,3.425.788l-1.326.966-2.9,2.115h0l-3.971,2.913a1.5,1.5,0,0,0-.376,1.774c1.436,3.141,4.527,4.446,6.923,2.7l4.638-3.381.041-.036.243-.193.069-.051a1.269,1.269,0,0,1,1.965.478,1.176,1.176,0,0,0-.875,1.037,1.445,1.445,0,0,0,.495,1.378l.93.676a1.01,1.01,0,0,0,.21.153l8.993,6.558a1.587,1.587,0,0,1,.408,1.922.97.97,0,0,1-1.508.508L33.792,31.945l-1.059-.773a.93.93,0,0,0-1.415.473,1.5,1.5,0,0,0,.376,1.779l1.059.773,10.069,7.336,1.059.773a1.587,1.587,0,0,1,.4,1.922.968.968,0,0,1-1.509.508l-1.059-.773L31.649,36.622,30.59,35.85a.93.93,0,0,0-1.415.473A1.5,1.5,0,0,0,29.55,38.1l1.059.773.615.447,9.454,6.893a1.581,1.581,0,0,1,.408,1.917h0a.97.97,0,0,1-1.508.513L37.456,47.1,28.45,40.532l-2.123-1.545a.933.933,0,0,0-1.378.5,1.509,1.509,0,0,0,.343,1.751l11.125,8.114a1.58,1.58,0,0,1,.408,1.916.97.97,0,0,1-1.508.514L24.831,44.141h-.012l-.631-.463h-.016L20.9,41.289a7.45,7.45,0,0,1-.6-.544,1.09,1.09,0,0,0-.6-.554,10.72,10.72,0,0,1-1.4-11.24l2.515-5.5A7.071,7.071,0,0,1,26.485,18.977ZM7.079,27.472a1.2,1.2,0,0,0-1.088.773,1.782,1.782,0,0,0,.449,2.11,1.1,1.1,0,0,0,1.67-.564,1.782,1.782,0,0,0-.449-2.11,1.041,1.041,0,0,0-.582-.208Zm49.958,0a1.041,1.041,0,0,0-.586.208,1.784,1.784,0,0,0-.445,2.11,1.1,1.1,0,0,0,1.67.564,1.782,1.782,0,0,0,.449-2.11A1.2,1.2,0,0,0,57.036,27.472ZM19.687,43.389c.06.046.108.108.17.153l1.581,1.149a.99.99,0,0,0-.105.071.969.969,0,0,1-1.508-.513A1.7,1.7,0,0,1,19.687,43.389Zm3.817,2.8.275.2h0L25.725,47.8l-1.193.869a.97.97,0,0,1-1.508-.514,1.581,1.581,0,0,1,.408-1.916q.037-.026.073-.056ZM27.783,49.3,30,50.923l-1.205.879a.97.97,0,0,1-1.508-.513,1.579,1.579,0,0,1,.4-1.917,1.026,1.026,0,0,0,.093-.071Z" transform="translate(-0.999 -7.999)" fill="#fff" stroke="#fff" stroke-width="1"/>
    </g>
  </g>
</svg>
