<svg xmlns="http://www.w3.org/2000/svg" width="62.753" height="39.002" viewBox="0 0 62.753 39.002">
  <g id="noun_fast_316759" transform="translate(24.5 8.4)">
    <g id="Group_1376" data-name="Group 1376" transform="translate(-24 -7.9)">
      <path id="Path_247" data-name="Path 247" d="M38.578,37.357A1.728,1.728,0,0,0,36.931,35.6H16.347a1.761,1.761,0,0,0,0,3.515H36.931A1.683,1.683,0,0,0,38.578,37.357Z" transform="translate(-8.044 -27.18)" fill="#fff" stroke="#fff" stroke-width="1"/>
      <path id="Path_248" data-name="Path 248" d="M39.134,48.857A1.728,1.728,0,0,0,37.488,47.1H26.647a1.761,1.761,0,0,0,0,3.515H37.488A1.683,1.683,0,0,0,39.134,48.857Z" transform="translate(-11.277 -30.259)" fill="#fff" stroke="#fff" stroke-width="1"/>
      <path id="Path_249" data-name="Path 249" d="M48.982,24.1H6.647a1.761,1.761,0,0,0,0,3.515h42.4c8.028,0,14.478,6.956,14.478,15.45s-6.518,15.45-14.478,15.45a14.505,14.505,0,0,1-12.9-8.347,1.593,1.593,0,0,0-1.441-.952H26.27a1.761,1.761,0,0,0,0,3.515h7.41a17.538,17.538,0,0,0,15.3,9.372c9.812-.073,17.771-8.567,17.771-19.037S58.793,24.1,48.982,24.1Z" transform="translate(-5 -24.1)" fill="#fff" stroke="#fff" stroke-width="1"/>
      <path id="Path_250" data-name="Path 250" d="M68.284,33.1A1.881,1.881,0,0,0,66.5,35V45.84h0v.366h0c0,.146.069.22.069.366h0c.069.073.069.22.137.293h0c.069.073.137.22.206.293h0l4.529,4.833a1.792,1.792,0,0,0,1.235.586,1.671,1.671,0,0,0,1.235-.586,2.04,2.04,0,0,0,0-2.709l-4.048-4.32V35A1.571,1.571,0,0,0,68.284,33.1Z" transform="translate(-24.302 -26.51)" fill="#fff" stroke="#fff" stroke-width="1"/>
    </g>
  </g>
</svg>
